<svg width="65" height="74" viewBox="0 0 65 74" fill="none" xmlns="http://www.w3.org/2000/svg">
<path d="M33.4857 6.63441L32.5 6.07609L31.5143 6.63441L19.8853 13.2213L16.5872 11.3388L32.5 2.30012L48.4128 11.3388L45.1147 13.2213L33.4857 6.63441ZM58.6492 52.9988L59.6636 52.4243V51.2586V38.1252L63 36.2209V54.2816L47.0451 63.3442V59.5715L58.6492 52.9988ZM59.6636 22.6693V21.5079L58.655 20.9323L54.362 18.482L57.6636 16.5975L63 19.6433V25.6953L59.6636 27.5996V22.6693ZM31.8638 67.3507L32.8619 67.9358L33.8667 67.3624L38.2118 64.8825V68.6515L32.9449 71.6575L26.963 67.7556V64.4775L31.8638 67.3507ZM6.34492 20.9323L5.33632 21.5079V22.6693V27.5995L2 25.6953V19.6433L7.33632 16.5975L10.638 18.482L6.34492 20.9323ZM5.33632 51.2586V52.4243L6.35064 52.9988L17.9548 59.5715V63.3442L2 54.2816V36.2209L5.33632 38.1252V51.2586Z" fill="black" stroke="black" stroke-width="4"/>
<path d="M19.6202 23.0873V22.5431H24.9555H26.9555V20.5431V17.0982L27.8839 16.5898V20.5431V22.5431H29.8839H34.6977H36.6977V20.5431V16.5898L37.6261 17.0982V20.8123V22.2636L39.0059 22.7137L39.8266 22.9814C39.8273 22.9816 39.8279 22.9818 39.8286 22.982C40.1525 23.0888 40.7884 23.3662 41.1881 23.5793C41.5539 23.7847 42.0775 24.17 42.7152 24.7786L42.7209 24.7841L42.7266 24.7895C43.383 25.4061 43.7567 25.8757 43.9483 26.197L43.9491 26.1984C44.1463 26.5286 44.4362 27.1459 44.5545 27.4713C44.6661 27.7785 44.8221 28.389 44.8888 28.7516C44.9326 29.0124 44.9586 29.605 44.9314 30.0997C44.8927 30.5877 44.7786 31.2181 44.6596 31.5814L44.6548 31.5962L44.6502 31.6109C44.5091 32.0653 44.295 32.5962 44.215 32.7517C44.0626 33.0268 43.8274 33.4103 43.7023 33.5831C43.5575 33.7831 43.2824 34.1383 42.7187 34.7697L41.342 36.3118L42.9287 37.6368L43.6508 38.2398L43.6564 38.2444C43.9441 38.483 44.4205 38.9671 44.6419 39.2445L44.6505 39.2553L44.6593 39.2659C44.8631 39.5142 45.2336 40.0882 45.419 40.4531C45.6057 40.8205 45.8643 41.4711 45.9664 41.8183C46.081 42.2315 46.1304 42.5528 46.1304 43.4772C46.1304 44.4018 46.081 44.7231 45.9663 45.1364C45.8556 45.5142 45.6165 46.1331 45.4615 46.4317C45.2682 46.8039 44.9293 47.3504 44.7495 47.5827L44.737 47.5989L44.7248 47.6153C44.5639 47.8322 44.1501 48.2794 43.8497 48.5562C43.5153 48.8397 43.0387 49.2021 42.8212 49.3459C42.6467 49.4612 42.1375 49.7289 41.7452 49.9041C41.4678 50.0232 40.7759 50.2589 39.1779 50.6263L37.6261 50.9832V52.5755V56.0256L36.6977 56.4918V52.6293V50.6293H34.6977H29.8839H27.8839V52.6293V56.4918L26.9555 56.0256V52.6293V50.6293H24.9555H19.6202V50.0851L22.5134 50.0531L24.4913 50.0313V48.0533V25.1191V23.1411L22.5134 23.1193L19.6202 23.0873ZM25.4197 34.2764L25.4248 36.2579L27.4063 36.2712C31.4127 36.2981 33.926 36.3036 35.5009 36.2927C36.9927 36.2825 37.7925 36.2597 38.2163 36.1934C38.7687 36.1069 39.5471 35.8931 40.0726 35.657C40.6363 35.4081 41.3625 34.9026 41.8166 34.5038C42.2287 34.1423 42.8007 33.5438 43.0955 33.075L43.1144 33.045L43.1322 33.0144C43.3469 32.6447 43.6104 32.0479 43.7548 31.5957C43.9323 31.0398 44.033 30.2476 44.033 29.6952C44.033 29.1428 43.9323 28.3506 43.7548 27.7947C43.6104 27.3425 43.3469 26.7457 43.1322 26.376L43.1144 26.3454L43.0955 26.3154C42.8148 25.8691 42.2857 25.2908 41.8512 24.9077C41.4227 24.5213 40.7717 24.0494 40.2747 23.8066L40.2471 23.7931L40.219 23.7805C39.7899 23.587 39.0779 23.3559 38.5037 23.2501C38.0417 23.1627 37.3968 23.1247 36.5272 23.101C35.6085 23.076 34.2988 23.0653 32.4283 23.0653C30.4953 23.0653 29.2268 23.0733 28.4333 23.0957C28.0463 23.1067 27.7181 23.1223 27.466 23.1497C27.3523 23.162 27.1642 23.1855 26.9659 23.2401C26.8729 23.2657 26.6781 23.3243 26.4612 23.4477C26.2916 23.5443 25.7561 23.8764 25.526 24.5969L25.526 24.5969C25.4846 24.7268 25.4664 24.8292 25.4611 24.8592L25.4609 24.8603C25.4513 24.9143 25.4457 24.9585 25.4427 24.9837C25.4367 25.035 25.4335 25.0786 25.4318 25.1025C25.4282 25.1539 25.426 25.2058 25.4245 25.2474C25.4213 25.3349 25.4187 25.4464 25.4166 25.5717C25.4123 25.8256 25.409 26.1772 25.4069 26.5974C25.4025 27.4394 25.4025 28.5786 25.4083 29.8103C25.4083 29.8109 25.4083 29.8116 25.4083 29.8122L25.4197 34.2764ZM25.4197 48.0584L25.4248 50.0533H27.4197C33.1567 50.0533 36.1402 50.0507 37.7673 50.022C39.3568 49.994 39.8753 49.9454 40.5103 49.7465C41.0679 49.5719 41.7995 49.2218 42.2649 48.9141C42.743 48.598 43.3371 48.0592 43.6865 47.674L43.6986 47.6606L43.7105 47.647C44.1077 47.1928 44.5565 46.4852 44.793 45.9227C44.9409 45.5716 45.0669 45.2069 45.1418 44.7579C45.2112 44.3421 45.225 43.9212 45.225 43.4772C45.225 43.0332 45.2112 42.6123 45.1418 42.1965C45.067 41.748 44.9412 41.3837 44.7935 41.033C44.5582 40.4727 44.1108 39.7665 43.7272 39.3242L43.7128 39.3076L43.698 39.2912C43.3643 38.9233 42.8095 38.4051 42.3512 38.0951C41.9096 37.7965 41.2226 37.4586 40.7214 37.2731L40.715 37.2708C40.5238 37.2008 40.2601 37.1047 39.8904 37.0374C39.5584 36.977 39.1922 36.9484 38.7469 36.9298C37.8767 36.8934 36.3737 36.8851 33.5556 36.8696L33.4251 36.8689L33.423 36.8689C31.0326 36.8581 29.5249 36.8579 28.607 36.8746C28.1573 36.8827 27.799 36.8955 27.5341 36.9191C27.4131 36.9299 27.2282 36.9496 27.0369 36.9956C26.9467 37.0173 26.7631 37.0659 26.5558 37.17C26.4041 37.2462 25.8742 37.528 25.591 38.193L25.549 38.2918L25.5177 38.3946C25.4792 38.5214 25.462 38.6244 25.4565 38.6578C25.4487 38.705 25.444 38.744 25.4414 38.7677C25.4361 38.8152 25.4331 38.8559 25.4315 38.8797C25.4281 38.93 25.426 38.9812 25.4244 39.0233C25.4213 39.1113 25.4187 39.2233 25.4166 39.3494C25.4123 39.6046 25.409 39.9572 25.4069 40.3781C25.4025 41.2214 25.4025 42.3606 25.4083 43.5923C25.4083 43.593 25.4083 43.5936 25.4083 43.5942L25.4197 48.0584Z" fill="black" stroke="black" stroke-width="4"/>
</svg>
