<svg width="19" height="22" viewBox="0 0 19 22" fill="none" xmlns="http://www.w3.org/2000/svg">
<path d="M3.95219 3.87578L9.46997 0.729492L14.9878 3.87578L12.9591 5.0381L9.46997 3.05414L5.98079 5.0381L3.95219 3.87578ZM16.428 14.9579L12.9389 16.9418V19.2665L18.4567 16.1202V9.82762L16.428 10.99V14.9579ZM14.3995 5.85974L16.428 7.02205V9.34671L18.4567 8.18437V5.85974L16.428 4.69742L14.3995 5.85974ZM7.44137 17.7836V20.1082L9.46997 21.2705L11.4986 20.1082V17.7836L9.46997 18.9459L7.44137 17.7836ZM2.51187 7.02205L4.54047 5.85974L2.51187 4.69742L0.483276 5.85974V8.18437L2.51187 9.34671V7.02205ZM2.51187 10.99L0.483276 9.82762V16.1202L6.00105 19.2665V16.9418L2.51187 14.9579V10.99Z" fill="#0E0C07"/>
<path fill-rule="evenodd" clip-rule="evenodd" d="M7.28002 5.14667L8.64278 4.39752V6.43184H9.97386V4.39752L11.3366 5.14667V6.50656L11.5648 6.58128C11.6916 6.62312 11.9008 6.71578 12.0339 6.78751C12.1891 6.87418 12.373 7.01465 12.5726 7.20593C12.7755 7.39722 12.9181 7.56757 13.0068 7.71701C13.0797 7.83955 13.1748 8.04279 13.2191 8.16533C13.2635 8.28787 13.3142 8.4911 13.3364 8.61364C13.3586 8.74216 13.3649 8.95735 13.3554 9.12173C13.3427 9.28911 13.3047 9.51326 13.254 9.66868C13.2096 9.81214 13.1367 10.0004 13.0924 10.0841C13.0448 10.1708 12.9656 10.3023 12.9117 10.377C12.8579 10.4517 12.7691 10.5653 12.6043 10.7506L12.804 10.918C12.9117 11.0076 13.0702 11.169 13.1558 11.2766C13.2413 11.3812 13.3649 11.5755 13.4315 11.707C13.498 11.8385 13.5836 12.0537 13.6216 12.1852C13.6723 12.3675 13.6882 12.511 13.6882 12.7979C13.6882 13.0848 13.6723 13.2283 13.6216 13.4106C13.5836 13.5421 13.5044 13.7513 13.441 13.8739C13.3776 13.9964 13.2667 14.1787 13.1906 14.2774C13.1177 14.376 12.9719 14.5314 12.8705 14.6241C12.7659 14.7137 12.6107 14.8333 12.5251 14.8901C12.4395 14.9468 12.2652 15.0365 12.1448 15.0903C12.0212 15.1441 11.7898 15.2188 11.3366 15.3234V16.6235L9.97386 17.3106V15.3384H8.64278V17.3106L7.28002 16.6235V15.3384H5.25171V14.0831L6.59863 14.0681V7.70207L5.25171 7.68712V6.43184H7.28002V5.14667ZM7.95823 9.00218L7.9614 10.2425C10.1767 10.2575 10.7281 10.2485 10.8612 10.2276C10.9753 10.2096 11.1433 10.1618 11.2352 10.12C11.324 10.0811 11.4792 9.97652 11.5775 9.88985C11.6726 9.80616 11.7867 9.68063 11.8279 9.61488C11.8659 9.54913 11.9229 9.42061 11.9515 9.33095C11.98 9.24128 12.0022 9.07989 12.0022 8.9723C12.0022 8.8647 11.98 8.70331 11.9515 8.61364C11.9229 8.52398 11.8659 8.39546 11.8279 8.32971C11.7867 8.26396 11.6789 8.14142 11.5838 8.05773C11.4919 7.97405 11.3525 7.87542 11.2732 7.83656C11.194 7.8007 11.0387 7.74989 10.9246 7.72897C10.7693 7.69908 10.3795 7.68712 9.34635 7.68712C8.27515 7.68712 7.97408 7.69609 7.96457 7.72598C7.95823 7.74391 7.95506 8.32074 7.95823 9.00218ZM7.95823 12.8278L7.9614 14.0681C11.1401 14.0681 11.2352 14.0652 11.4159 14.0084C11.5204 13.9755 11.6757 13.9008 11.7613 13.844C11.8469 13.7872 11.9768 13.6706 12.0497 13.5899C12.1226 13.5063 12.2145 13.3598 12.2557 13.2612C12.3159 13.1177 12.3318 13.0281 12.3318 12.7979C12.3318 12.5678 12.3159 12.4781 12.2557 12.3347C12.2145 12.236 12.1226 12.0896 12.0529 12.0089C11.98 11.9282 11.8596 11.8176 11.7803 11.7638C11.7011 11.71 11.5521 11.6353 11.4476 11.5964C11.2606 11.5277 11.2384 11.5277 9.61891 11.5187C8.29417 11.5128 7.97725 11.5187 7.96457 11.5486C7.95823 11.5695 7.95506 12.1464 7.95823 12.8278Z" fill="#0E0C07"/>
</svg>
