<svg width="23" height="20" viewBox="0 0 23 20" fill="none" xmlns="http://www.w3.org/2000/svg">
<path fill-rule="evenodd" clip-rule="evenodd" d="M17.4806 19.2862C17.7786 19.5013 18.1625 19.5551 18.5049 19.423C18.8472 19.2899 19.0989 18.9917 19.1748 18.6302C19.9788 14.7758 21.9292 5.01997 22.6611 1.51383C22.7166 1.24957 22.6241 0.974927 22.4205 0.798441C22.217 0.621954 21.9348 0.570989 21.6831 0.666311C17.8035 2.13106 5.85574 6.70367 0.972261 8.54688C0.662301 8.6639 0.460596 8.9678 0.470774 9.30096C0.481877 9.63505 0.702087 9.92479 1.01945 10.022C3.20952 10.6902 6.08428 11.6198 6.08428 11.6198C6.08428 11.6198 7.42775 15.7583 8.12816 17.8629C8.21606 18.1272 8.41869 18.3348 8.68609 18.4065C8.95256 18.4773 9.23754 18.4028 9.43647 18.2112C10.5616 17.1277 12.3011 15.4525 12.3011 15.4525C12.3011 15.4525 15.6061 17.9243 17.4806 19.2862ZM7.29359 11.097L8.84709 16.3236L9.1922 13.0138C9.1922 13.0138 15.1943 7.49173 18.6159 4.34422C18.7158 4.25173 18.7297 4.09695 18.6464 3.98842C18.5641 3.87988 18.4123 3.8544 18.2985 3.92802C14.3329 6.51114 7.29359 11.097 7.29359 11.097Z" fill="black"/>
</svg>
